<?xml version="1.0" encoding="UTF-8" standalone="no"?>
<!DOCTYPE svg PUBLIC "-//W3C//DTD SVG 1.1//EN"
 "http://www.w3.org/Graphics/SVG/1.1/DTD/svg11.dtd">
<!-- Generated by graphviz version 2.38.0 (20140413.2041)
 -->
<!-- Title: snakemake_dag Pages: 1 -->
<svg width="539pt" height="692pt"
 viewBox="0.00 0.00 539.00 692.00" xmlns="http://www.w3.org/2000/svg" xmlns:xlink="http://www.w3.org/1999/xlink">
<g id="graph0" class="graph" transform="scale(1 1) rotate(0) translate(4 688)">
<title>snakemake_dag</title>
<polygon fill="white" stroke="none" points="-4,4 -4,-688 535,-688 535,4 -4,4"/>
<!-- 0 -->
<g id="node1" class="node"><title>0</title>
<path fill="none" stroke="#d85656" stroke-width="2" stroke-dasharray="5,2" d="M290.5,-36C290.5,-36 260.5,-36 260.5,-36 254.5,-36 248.5,-30 248.5,-24 248.5,-24 248.5,-12 248.5,-12 248.5,-6 254.5,-0 260.5,-0 260.5,-0 290.5,-0 290.5,-0 296.5,-0 302.5,-6 302.5,-12 302.5,-12 302.5,-24 302.5,-24 302.5,-30 296.5,-36 290.5,-36"/>
<text text-anchor="middle" x="275.5" y="-15.5" font-family="sans" font-size="10.00">all</text>
</g>
<!-- 1 -->
<g id="node2" class="node"><title>1</title>
<path fill="none" stroke="#d87d56" stroke-width="2" stroke-dasharray="5,2" d="M312.5,-108C312.5,-108 238.5,-108 238.5,-108 232.5,-108 226.5,-102 226.5,-96 226.5,-96 226.5,-84 226.5,-84 226.5,-78 232.5,-72 238.5,-72 238.5,-72 312.5,-72 312.5,-72 318.5,-72 324.5,-78 324.5,-84 324.5,-84 324.5,-96 324.5,-96 324.5,-102 318.5,-108 312.5,-108"/>
<text text-anchor="middle" x="275.5" y="-87.5" font-family="sans" font-size="10.00">DESeq2_analysis</text>
</g>
<!-- 1&#45;&gt;0 -->
<g id="edge1" class="edge"><title>1&#45;&gt;0</title>
<path fill="none" stroke="grey" stroke-width="2" d="M275.5,-71.6966C275.5,-63.9827 275.5,-54.7125 275.5,-46.1124"/>
<polygon fill="grey" stroke="grey" stroke-width="2" points="279,-46.1043 275.5,-36.1043 272,-46.1044 279,-46.1043"/>
</g>
<!-- 2 -->
<g id="node3" class="node"><title>2</title>
<path fill="none" stroke="#78d856" stroke-width="2" stroke-dasharray="5,2" d="M303,-180C303,-180 248,-180 248,-180 242,-180 236,-174 236,-168 236,-168 236,-156 236,-156 236,-150 242,-144 248,-144 248,-144 303,-144 303,-144 309,-144 315,-150 315,-156 315,-156 315,-168 315,-168 315,-174 309,-180 303,-180"/>
<text text-anchor="middle" x="275.5" y="-159.5" font-family="sans" font-size="10.00">calreadcount</text>
</g>
<!-- 2&#45;&gt;1 -->
<g id="edge2" class="edge"><title>2&#45;&gt;1</title>
<path fill="none" stroke="grey" stroke-width="2" d="M275.5,-143.697C275.5,-135.983 275.5,-126.712 275.5,-118.112"/>
<polygon fill="grey" stroke="grey" stroke-width="2" points="279,-118.104 275.5,-108.104 272,-118.104 279,-118.104"/>
</g>
<!-- 3 -->
<g id="node4" class="node"><title>3</title>
<path fill="none" stroke="#56c9d8" stroke-width="2" stroke-dasharray="5,2" d="M309.5,-252C309.5,-252 241.5,-252 241.5,-252 235.5,-252 229.5,-246 229.5,-240 229.5,-240 229.5,-228 229.5,-228 229.5,-222 235.5,-216 241.5,-216 241.5,-216 309.5,-216 309.5,-216 315.5,-216 321.5,-222 321.5,-228 321.5,-228 321.5,-240 321.5,-240 321.5,-246 315.5,-252 309.5,-252"/>
<text text-anchor="middle" x="275.5" y="-231.5" font-family="sans" font-size="10.00">stringtie_merge</text>
</g>
<!-- 3&#45;&gt;2 -->
<g id="edge3" class="edge"><title>3&#45;&gt;2</title>
<path fill="none" stroke="grey" stroke-width="2" d="M275.5,-215.697C275.5,-207.983 275.5,-198.712 275.5,-190.112"/>
<polygon fill="grey" stroke="grey" stroke-width="2" points="279,-190.104 275.5,-180.104 272,-190.104 279,-190.104"/>
</g>
<!-- 4 -->
<g id="node5" class="node"><title>4</title>
<path fill="none" stroke="#567bd8" stroke-width="2" stroke-dasharray="5,2" d="M219,-396C219,-396 178,-396 178,-396 172,-396 166,-390 166,-384 166,-384 166,-372 166,-372 166,-366 172,-360 178,-360 178,-360 219,-360 219,-360 225,-360 231,-366 231,-372 231,-372 231,-384 231,-384 231,-390 225,-396 219,-396"/>
<text text-anchor="middle" x="198.5" y="-375.5" font-family="sans" font-size="10.00">sam2bam</text>
</g>
<!-- 4&#45;&gt;2 -->
<g id="edge4" class="edge"><title>4&#45;&gt;2</title>
<path fill="none" stroke="grey" stroke-width="2" d="M196.721,-359.631C194.387,-328.519 193.358,-262.221 220.5,-216 226.847,-205.191 236.007,-195.137 245.036,-186.756"/>
<polygon fill="grey" stroke="grey" stroke-width="2" points="247.355,-189.377 252.525,-180.129 242.716,-184.134 247.355,-189.377"/>
</g>
<!-- 8 -->
<g id="node9" class="node"><title>8</title>
<path fill="none" stroke="#56d87b" stroke-width="2" stroke-dasharray="5,2" d="M254.5,-324C254.5,-324 222.5,-324 222.5,-324 216.5,-324 210.5,-318 210.5,-312 210.5,-312 210.5,-300 210.5,-300 210.5,-294 216.5,-288 222.5,-288 222.5,-288 254.5,-288 254.5,-288 260.5,-288 266.5,-294 266.5,-300 266.5,-300 266.5,-312 266.5,-312 266.5,-318 260.5,-324 254.5,-324"/>
<text text-anchor="middle" x="238.5" y="-303.5" font-family="sans" font-size="10.00">stringtie</text>
</g>
<!-- 4&#45;&gt;8 -->
<g id="edge16" class="edge"><title>4&#45;&gt;8</title>
<path fill="none" stroke="grey" stroke-width="2" d="M208.388,-359.697C212.989,-351.644 218.56,-341.894 223.653,-332.982"/>
<polygon fill="grey" stroke="grey" stroke-width="2" points="226.804,-334.523 228.726,-324.104 220.726,-331.05 226.804,-334.523"/>
</g>
<!-- 5 -->
<g id="node6" class="node"><title>5</title>
<path fill="none" stroke="#567bd8" stroke-width="2" stroke-dasharray="5,2" d="M111,-396C111,-396 70,-396 70,-396 64,-396 58,-390 58,-384 58,-384 58,-372 58,-372 58,-366 64,-360 70,-360 70,-360 111,-360 111,-360 117,-360 123,-366 123,-372 123,-372 123,-384 123,-384 123,-390 117,-396 111,-396"/>
<text text-anchor="middle" x="90.5" y="-375.5" font-family="sans" font-size="10.00">sam2bam</text>
</g>
<!-- 5&#45;&gt;2 -->
<g id="edge5" class="edge"><title>5&#45;&gt;2</title>
<path fill="none" stroke="grey" stroke-width="2" d="M85.6661,-359.787C81.392,-340.97 77.5111,-310.502 89.5,-288 118.219,-234.098 181.657,-199.299 226.435,-180.444"/>
<polygon fill="grey" stroke="grey" stroke-width="2" points="228.035,-183.571 235.97,-176.549 225.389,-177.09 228.035,-183.571"/>
</g>
<!-- 9 -->
<g id="node10" class="node"><title>9</title>
<path fill="none" stroke="#56d87b" stroke-width="2" stroke-dasharray="5,2" d="M142.5,-324C142.5,-324 110.5,-324 110.5,-324 104.5,-324 98.5,-318 98.5,-312 98.5,-312 98.5,-300 98.5,-300 98.5,-294 104.5,-288 110.5,-288 110.5,-288 142.5,-288 142.5,-288 148.5,-288 154.5,-294 154.5,-300 154.5,-300 154.5,-312 154.5,-312 154.5,-318 148.5,-324 142.5,-324"/>
<text text-anchor="middle" x="126.5" y="-303.5" font-family="sans" font-size="10.00">stringtie</text>
</g>
<!-- 5&#45;&gt;9 -->
<g id="edge17" class="edge"><title>5&#45;&gt;9</title>
<path fill="none" stroke="grey" stroke-width="2" d="M99.3989,-359.697C103.497,-351.728 108.449,-342.1 112.993,-333.264"/>
<polygon fill="grey" stroke="grey" stroke-width="2" points="116.242,-334.598 117.703,-324.104 110.017,-331.396 116.242,-334.598"/>
</g>
<!-- 6 -->
<g id="node7" class="node"><title>6</title>
<path fill="none" stroke="#567bd8" stroke-width="2" stroke-dasharray="5,2" d="M448,-396C448,-396 407,-396 407,-396 401,-396 395,-390 395,-384 395,-384 395,-372 395,-372 395,-366 401,-360 407,-360 407,-360 448,-360 448,-360 454,-360 460,-366 460,-372 460,-372 460,-384 460,-384 460,-390 454,-396 448,-396"/>
<text text-anchor="middle" x="427.5" y="-375.5" font-family="sans" font-size="10.00">sam2bam</text>
</g>
<!-- 6&#45;&gt;2 -->
<g id="edge6" class="edge"><title>6&#45;&gt;2</title>
<path fill="none" stroke="grey" stroke-width="2" d="M442.72,-359.718C456.927,-341.37 474.178,-311.794 461.5,-288 432.781,-234.098 369.343,-199.299 324.565,-180.444"/>
<polygon fill="grey" stroke="grey" stroke-width="2" points="325.611,-177.09 315.03,-176.549 322.965,-183.571 325.611,-177.09"/>
</g>
<!-- 10 -->
<g id="node11" class="node"><title>10</title>
<path fill="none" stroke="#56d87b" stroke-width="2" stroke-dasharray="5,2" d="M440.5,-324C440.5,-324 408.5,-324 408.5,-324 402.5,-324 396.5,-318 396.5,-312 396.5,-312 396.5,-300 396.5,-300 396.5,-294 402.5,-288 408.5,-288 408.5,-288 440.5,-288 440.5,-288 446.5,-288 452.5,-294 452.5,-300 452.5,-300 452.5,-312 452.5,-312 452.5,-318 446.5,-324 440.5,-324"/>
<text text-anchor="middle" x="424.5" y="-303.5" font-family="sans" font-size="10.00">stringtie</text>
</g>
<!-- 6&#45;&gt;10 -->
<g id="edge18" class="edge"><title>6&#45;&gt;10</title>
<path fill="none" stroke="grey" stroke-width="2" d="M426.758,-359.697C426.428,-351.983 426.031,-342.712 425.662,-334.112"/>
<polygon fill="grey" stroke="grey" stroke-width="2" points="429.158,-333.945 425.233,-324.104 422.165,-334.245 429.158,-333.945"/>
</g>
<!-- 7 -->
<g id="node8" class="node"><title>7</title>
<path fill="none" stroke="#567bd8" stroke-width="2" stroke-dasharray="5,2" d="M340,-396C340,-396 299,-396 299,-396 293,-396 287,-390 287,-384 287,-384 287,-372 287,-372 287,-366 293,-360 299,-360 299,-360 340,-360 340,-360 346,-360 352,-366 352,-372 352,-372 352,-384 352,-384 352,-390 346,-396 340,-396"/>
<text text-anchor="middle" x="319.5" y="-375.5" font-family="sans" font-size="10.00">sam2bam</text>
</g>
<!-- 7&#45;&gt;2 -->
<g id="edge7" class="edge"><title>7&#45;&gt;2</title>
<path fill="none" stroke="grey" stroke-width="2" d="M332.227,-359.845C338.786,-349.923 346.107,-336.883 349.5,-324 353.575,-308.528 351.558,-303.867 349.5,-288 345.242,-255.18 347.258,-244.539 330.5,-216 324.153,-205.191 314.993,-195.137 305.964,-186.756"/>
<polygon fill="grey" stroke="grey" stroke-width="2" points="308.284,-184.134 298.475,-180.129 303.645,-189.377 308.284,-184.134"/>
</g>
<!-- 11 -->
<g id="node12" class="node"><title>11</title>
<path fill="none" stroke="#56d87b" stroke-width="2" stroke-dasharray="5,2" d="M328.5,-324C328.5,-324 296.5,-324 296.5,-324 290.5,-324 284.5,-318 284.5,-312 284.5,-312 284.5,-300 284.5,-300 284.5,-294 290.5,-288 296.5,-288 296.5,-288 328.5,-288 328.5,-288 334.5,-288 340.5,-294 340.5,-300 340.5,-300 340.5,-312 340.5,-312 340.5,-318 334.5,-324 328.5,-324"/>
<text text-anchor="middle" x="312.5" y="-303.5" font-family="sans" font-size="10.00">stringtie</text>
</g>
<!-- 7&#45;&gt;11 -->
<g id="edge19" class="edge"><title>7&#45;&gt;11</title>
<path fill="none" stroke="grey" stroke-width="2" d="M317.77,-359.697C316.998,-351.983 316.071,-342.712 315.211,-334.112"/>
<polygon fill="grey" stroke="grey" stroke-width="2" points="318.688,-333.706 314.21,-324.104 311.723,-334.403 318.688,-333.706"/>
</g>
<!-- 8&#45;&gt;3 -->
<g id="edge8" class="edge"><title>8&#45;&gt;3</title>
<path fill="none" stroke="grey" stroke-width="2" d="M247.646,-287.697C251.903,-279.644 257.056,-269.894 261.766,-260.982"/>
<polygon fill="grey" stroke="grey" stroke-width="2" points="264.88,-262.581 266.459,-252.104 258.692,-259.31 264.88,-262.581"/>
</g>
<!-- 9&#45;&gt;3 -->
<g id="edge9" class="edge"><title>9&#45;&gt;3</title>
<path fill="none" stroke="grey" stroke-width="2" d="M154.526,-291.834C175.755,-281.86 205.367,-267.949 229.979,-256.385"/>
<polygon fill="grey" stroke="grey" stroke-width="2" points="231.577,-259.502 239.14,-252.082 228.601,-253.166 231.577,-259.502"/>
</g>
<!-- 10&#45;&gt;3 -->
<g id="edge10" class="edge"><title>10&#45;&gt;3</title>
<path fill="none" stroke="grey" stroke-width="2" d="M396.474,-291.834C375.245,-281.86 345.633,-267.949 321.021,-256.385"/>
<polygon fill="grey" stroke="grey" stroke-width="2" points="322.399,-253.166 311.86,-252.082 319.423,-259.502 322.399,-253.166"/>
</g>
<!-- 11&#45;&gt;3 -->
<g id="edge11" class="edge"><title>11&#45;&gt;3</title>
<path fill="none" stroke="grey" stroke-width="2" d="M303.354,-287.697C299.097,-279.644 293.944,-269.894 289.234,-260.982"/>
<polygon fill="grey" stroke="grey" stroke-width="2" points="292.308,-259.31 284.541,-252.104 286.12,-262.581 292.308,-259.31"/>
</g>
<!-- 12 -->
<g id="node13" class="node"><title>12</title>
<path fill="none" stroke="#d8a456" stroke-width="2" stroke-dasharray="5,2" d="M230,-468C230,-468 167,-468 167,-468 161,-468 155,-462 155,-456 155,-456 155,-444 155,-444 155,-438 161,-432 167,-432 167,-432 230,-432 230,-432 236,-432 242,-438 242,-444 242,-444 242,-456 242,-456 242,-462 236,-468 230,-468"/>
<text text-anchor="middle" x="198.5" y="-447.5" font-family="sans" font-size="10.00">hisat_mapping</text>
</g>
<!-- 12&#45;&gt;4 -->
<g id="edge12" class="edge"><title>12&#45;&gt;4</title>
<path fill="none" stroke="grey" stroke-width="2" d="M198.5,-431.697C198.5,-423.983 198.5,-414.712 198.5,-406.112"/>
<polygon fill="grey" stroke="grey" stroke-width="2" points="202,-406.104 198.5,-396.104 195,-406.104 202,-406.104"/>
</g>
<!-- 13 -->
<g id="node14" class="node"><title>13</title>
<path fill="none" stroke="#d8a456" stroke-width="2" stroke-dasharray="5,2" d="M122,-468C122,-468 59,-468 59,-468 53,-468 47,-462 47,-456 47,-456 47,-444 47,-444 47,-438 53,-432 59,-432 59,-432 122,-432 122,-432 128,-432 134,-438 134,-444 134,-444 134,-456 134,-456 134,-462 128,-468 122,-468"/>
<text text-anchor="middle" x="90.5" y="-447.5" font-family="sans" font-size="10.00">hisat_mapping</text>
</g>
<!-- 13&#45;&gt;5 -->
<g id="edge13" class="edge"><title>13&#45;&gt;5</title>
<path fill="none" stroke="grey" stroke-width="2" d="M90.5,-431.697C90.5,-423.983 90.5,-414.712 90.5,-406.112"/>
<polygon fill="grey" stroke="grey" stroke-width="2" points="94.0001,-406.104 90.5,-396.104 87.0001,-406.104 94.0001,-406.104"/>
</g>
<!-- 14 -->
<g id="node15" class="node"><title>14</title>
<path fill="none" stroke="#d8a456" stroke-width="2" stroke-dasharray="5,2" d="M459,-468C459,-468 396,-468 396,-468 390,-468 384,-462 384,-456 384,-456 384,-444 384,-444 384,-438 390,-432 396,-432 396,-432 459,-432 459,-432 465,-432 471,-438 471,-444 471,-444 471,-456 471,-456 471,-462 465,-468 459,-468"/>
<text text-anchor="middle" x="427.5" y="-447.5" font-family="sans" font-size="10.00">hisat_mapping</text>
</g>
<!-- 14&#45;&gt;6 -->
<g id="edge14" class="edge"><title>14&#45;&gt;6</title>
<path fill="none" stroke="grey" stroke-width="2" d="M427.5,-431.697C427.5,-423.983 427.5,-414.712 427.5,-406.112"/>
<polygon fill="grey" stroke="grey" stroke-width="2" points="431,-406.104 427.5,-396.104 424,-406.104 431,-406.104"/>
</g>
<!-- 15 -->
<g id="node16" class="node"><title>15</title>
<path fill="none" stroke="#d8a456" stroke-width="2" stroke-dasharray="5,2" d="M351,-468C351,-468 288,-468 288,-468 282,-468 276,-462 276,-456 276,-456 276,-444 276,-444 276,-438 282,-432 288,-432 288,-432 351,-432 351,-432 357,-432 363,-438 363,-444 363,-444 363,-456 363,-456 363,-462 357,-468 351,-468"/>
<text text-anchor="middle" x="319.5" y="-447.5" font-family="sans" font-size="10.00">hisat_mapping</text>
</g>
<!-- 15&#45;&gt;7 -->
<g id="edge15" class="edge"><title>15&#45;&gt;7</title>
<path fill="none" stroke="grey" stroke-width="2" d="M319.5,-431.697C319.5,-423.983 319.5,-414.712 319.5,-406.112"/>
<polygon fill="grey" stroke="grey" stroke-width="2" points="323,-406.104 319.5,-396.104 316,-406.104 323,-406.104"/>
</g>
<!-- 16 -->
<g id="node17" class="node"><title>16</title>
<path fill="none" stroke="#d8c356" stroke-width="2" stroke-dasharray="5,2" d="M204.5,-540C204.5,-540 174.5,-540 174.5,-540 168.5,-540 162.5,-534 162.5,-528 162.5,-528 162.5,-516 162.5,-516 162.5,-510 168.5,-504 174.5,-504 174.5,-504 204.5,-504 204.5,-504 210.5,-504 216.5,-510 216.5,-516 216.5,-516 216.5,-528 216.5,-528 216.5,-534 210.5,-540 204.5,-540"/>
<text text-anchor="middle" x="189.5" y="-519.5" font-family="sans" font-size="10.00">qc_filter</text>
</g>
<!-- 16&#45;&gt;12 -->
<g id="edge20" class="edge"><title>16&#45;&gt;12</title>
<path fill="none" stroke="grey" stroke-width="2" d="M191.725,-503.697C192.717,-495.983 193.908,-486.712 195.014,-478.112"/>
<polygon fill="grey" stroke="grey" stroke-width="2" points="198.497,-478.469 196.301,-468.104 191.554,-477.576 198.497,-478.469"/>
</g>
<!-- 17 -->
<g id="node18" class="node"><title>17</title>
<path fill="none" stroke="#56a2d8" stroke-width="2" stroke-dasharray="5,2" d="M288,-540C288,-540 247,-540 247,-540 241,-540 235,-534 235,-528 235,-528 235,-516 235,-516 235,-510 241,-504 247,-504 247,-504 288,-504 288,-504 294,-504 300,-510 300,-516 300,-516 300,-528 300,-528 300,-534 294,-540 288,-540"/>
<text text-anchor="middle" x="267.5" y="-519.5" font-family="sans" font-size="10.00">buildindex</text>
</g>
<!-- 17&#45;&gt;12 -->
<g id="edge21" class="edge"><title>17&#45;&gt;12</title>
<path fill="none" stroke="grey" stroke-width="2" d="M250.444,-503.697C242.005,-495.135 231.675,-484.656 222.457,-475.304"/>
<polygon fill="grey" stroke="grey" stroke-width="2" points="224.873,-472.769 215.36,-468.104 219.887,-477.683 224.873,-472.769"/>
</g>
<!-- 17&#45;&gt;13 -->
<g id="edge23" class="edge"><title>17&#45;&gt;13</title>
<path fill="none" stroke="grey" stroke-width="2" d="M234.954,-507.787C231.761,-506.503 228.569,-505.223 225.5,-504 198.554,-493.258 168.52,-481.45 143.635,-471.712"/>
<polygon fill="grey" stroke="grey" stroke-width="2" points="144.604,-468.333 134.016,-467.951 142.055,-474.852 144.604,-468.333"/>
</g>
<!-- 17&#45;&gt;14 -->
<g id="edge25" class="edge"><title>17&#45;&gt;14</title>
<path fill="none" stroke="grey" stroke-width="2" d="M300.264,-506.666C322.964,-496.735 353.568,-483.345 379.072,-472.187"/>
<polygon fill="grey" stroke="grey" stroke-width="2" points="380.812,-475.246 388.571,-468.032 378.006,-468.833 380.812,-475.246"/>
</g>
<!-- 17&#45;&gt;15 -->
<g id="edge27" class="edge"><title>17&#45;&gt;15</title>
<path fill="none" stroke="grey" stroke-width="2" d="M280.354,-503.697C286.525,-495.389 294.037,-485.277 300.824,-476.141"/>
<polygon fill="grey" stroke="grey" stroke-width="2" points="303.64,-478.219 306.794,-468.104 298.021,-474.045 303.64,-478.219"/>
</g>
<!-- 18 -->
<g id="node19" class="node"><title>18</title>
<path fill="none" stroke="#d8c356" stroke-width="2" stroke-dasharray="5,2" d="M90.5,-540C90.5,-540 60.5,-540 60.5,-540 54.5,-540 48.5,-534 48.5,-528 48.5,-528 48.5,-516 48.5,-516 48.5,-510 54.5,-504 60.5,-504 60.5,-504 90.5,-504 90.5,-504 96.5,-504 102.5,-510 102.5,-516 102.5,-516 102.5,-528 102.5,-528 102.5,-534 96.5,-540 90.5,-540"/>
<text text-anchor="middle" x="75.5" y="-519.5" font-family="sans" font-size="10.00">qc_filter</text>
</g>
<!-- 18&#45;&gt;13 -->
<g id="edge22" class="edge"><title>18&#45;&gt;13</title>
<path fill="none" stroke="grey" stroke-width="2" d="M79.2079,-503.697C80.8608,-495.983 82.8473,-486.712 84.6902,-478.112"/>
<polygon fill="grey" stroke="grey" stroke-width="2" points="88.1617,-478.616 86.8348,-468.104 81.3171,-477.149 88.1617,-478.616"/>
</g>
<!-- 19 -->
<g id="node20" class="node"><title>19</title>
<path fill="none" stroke="#d8c356" stroke-width="2" stroke-dasharray="5,2" d="M449.5,-540C449.5,-540 419.5,-540 419.5,-540 413.5,-540 407.5,-534 407.5,-528 407.5,-528 407.5,-516 407.5,-516 407.5,-510 413.5,-504 419.5,-504 419.5,-504 449.5,-504 449.5,-504 455.5,-504 461.5,-510 461.5,-516 461.5,-516 461.5,-528 461.5,-528 461.5,-534 455.5,-540 449.5,-540"/>
<text text-anchor="middle" x="434.5" y="-519.5" font-family="sans" font-size="10.00">qc_filter</text>
</g>
<!-- 19&#45;&gt;14 -->
<g id="edge24" class="edge"><title>19&#45;&gt;14</title>
<path fill="none" stroke="grey" stroke-width="2" d="M432.77,-503.697C431.998,-495.983 431.071,-486.712 430.211,-478.112"/>
<polygon fill="grey" stroke="grey" stroke-width="2" points="433.688,-477.706 429.21,-468.104 426.723,-478.403 433.688,-477.706"/>
</g>
<!-- 20 -->
<g id="node21" class="node"><title>20</title>
<path fill="none" stroke="#d8c356" stroke-width="2" stroke-dasharray="5,2" d="M360.5,-540C360.5,-540 330.5,-540 330.5,-540 324.5,-540 318.5,-534 318.5,-528 318.5,-528 318.5,-516 318.5,-516 318.5,-510 324.5,-504 330.5,-504 330.5,-504 360.5,-504 360.5,-504 366.5,-504 372.5,-510 372.5,-516 372.5,-516 372.5,-528 372.5,-528 372.5,-534 366.5,-540 360.5,-540"/>
<text text-anchor="middle" x="345.5" y="-519.5" font-family="sans" font-size="10.00">qc_filter</text>
</g>
<!-- 20&#45;&gt;15 -->
<g id="edge26" class="edge"><title>20&#45;&gt;15</title>
<path fill="none" stroke="grey" stroke-width="2" d="M339.073,-503.697C336.145,-495.813 332.613,-486.304 329.36,-477.546"/>
<polygon fill="grey" stroke="grey" stroke-width="2" points="332.616,-476.26 325.853,-468.104 326.054,-478.697 332.616,-476.26"/>
</g>
<!-- 21 -->
<g id="node22" class="node"><title>21</title>
<path fill="none" stroke="#56d8a2" stroke-width="2" stroke-dasharray="5,2" d="M218.5,-612C218.5,-612 170.5,-612 170.5,-612 164.5,-612 158.5,-606 158.5,-600 158.5,-600 158.5,-588 158.5,-588 158.5,-582 164.5,-576 170.5,-576 170.5,-576 218.5,-576 218.5,-576 224.5,-576 230.5,-582 230.5,-588 230.5,-588 230.5,-600 230.5,-600 230.5,-606 224.5,-612 218.5,-612"/>
<text text-anchor="middle" x="194.5" y="-591.5" font-family="sans" font-size="10.00">qc_trimmer</text>
</g>
<!-- 21&#45;&gt;16 -->
<g id="edge28" class="edge"><title>21&#45;&gt;16</title>
<path fill="none" stroke="grey" stroke-width="2" d="M193.264,-575.697C192.713,-567.983 192.051,-558.712 191.437,-550.112"/>
<polygon fill="grey" stroke="grey" stroke-width="2" points="194.925,-549.83 190.722,-540.104 187.943,-550.328 194.925,-549.83"/>
</g>
<!-- 22 -->
<g id="node23" class="node"><title>22</title>
<path fill="none" stroke="#56d8a2" stroke-width="2" stroke-dasharray="5,2" d="M90.5,-612C90.5,-612 42.5,-612 42.5,-612 36.5,-612 30.5,-606 30.5,-600 30.5,-600 30.5,-588 30.5,-588 30.5,-582 36.5,-576 42.5,-576 42.5,-576 90.5,-576 90.5,-576 96.5,-576 102.5,-582 102.5,-588 102.5,-588 102.5,-600 102.5,-600 102.5,-606 96.5,-612 90.5,-612"/>
<text text-anchor="middle" x="66.5" y="-591.5" font-family="sans" font-size="10.00">qc_trimmer</text>
</g>
<!-- 22&#45;&gt;18 -->
<g id="edge29" class="edge"><title>22&#45;&gt;18</title>
<path fill="none" stroke="grey" stroke-width="2" d="M68.7247,-575.697C69.7165,-567.983 70.9084,-558.712 72.0141,-550.112"/>
<polygon fill="grey" stroke="grey" stroke-width="2" points="75.497,-550.469 73.3009,-540.104 68.5541,-549.576 75.497,-550.469"/>
</g>
<!-- 23 -->
<g id="node24" class="node"><title>23</title>
<path fill="none" stroke="#56d8a2" stroke-width="2" stroke-dasharray="5,2" d="M476.5,-612C476.5,-612 428.5,-612 428.5,-612 422.5,-612 416.5,-606 416.5,-600 416.5,-600 416.5,-588 416.5,-588 416.5,-582 422.5,-576 428.5,-576 428.5,-576 476.5,-576 476.5,-576 482.5,-576 488.5,-582 488.5,-588 488.5,-588 488.5,-600 488.5,-600 488.5,-606 482.5,-612 476.5,-612"/>
<text text-anchor="middle" x="452.5" y="-591.5" font-family="sans" font-size="10.00">qc_trimmer</text>
</g>
<!-- 23&#45;&gt;19 -->
<g id="edge30" class="edge"><title>23&#45;&gt;19</title>
<path fill="none" stroke="grey" stroke-width="2" d="M448.051,-575.697C446.045,-567.898 443.631,-558.509 441.399,-549.829"/>
<polygon fill="grey" stroke="grey" stroke-width="2" points="444.778,-548.918 438.898,-540.104 437.999,-550.661 444.778,-548.918"/>
</g>
<!-- 24 -->
<g id="node25" class="node"><title>24</title>
<path fill="none" stroke="#56d8a2" stroke-width="2" stroke-dasharray="5,2" d="M367.5,-612C367.5,-612 319.5,-612 319.5,-612 313.5,-612 307.5,-606 307.5,-600 307.5,-600 307.5,-588 307.5,-588 307.5,-582 313.5,-576 319.5,-576 319.5,-576 367.5,-576 367.5,-576 373.5,-576 379.5,-582 379.5,-588 379.5,-588 379.5,-600 379.5,-600 379.5,-606 373.5,-612 367.5,-612"/>
<text text-anchor="middle" x="343.5" y="-591.5" font-family="sans" font-size="10.00">qc_trimmer</text>
</g>
<!-- 24&#45;&gt;20 -->
<g id="edge31" class="edge"><title>24&#45;&gt;20</title>
<path fill="none" stroke="grey" stroke-width="2" d="M343.994,-575.697C344.215,-567.983 344.48,-558.712 344.725,-550.112"/>
<polygon fill="grey" stroke="grey" stroke-width="2" points="348.224,-550.2 345.011,-540.104 341.227,-550 348.224,-550.2"/>
</g>
<!-- 25 -->
<g id="node26" class="node"><title>25</title>
<path fill="none" stroke="#c6d856" stroke-width="2" stroke-dasharray="5,2" d="M244,-684C244,-684 149,-684 149,-684 143,-684 137,-678 137,-672 137,-672 137,-660 137,-660 137,-654 143,-648 149,-648 149,-648 244,-648 244,-648 250,-648 256,-654 256,-660 256,-660 256,-672 256,-672 256,-678 250,-684 244,-684"/>
<text text-anchor="middle" x="196.5" y="-669" font-family="sans" font-size="10.00">sra2fastq</text>
<text text-anchor="middle" x="196.5" y="-658" font-family="sans" font-size="10.00">sample: SRR3418005</text>
</g>
<!-- 25&#45;&gt;21 -->
<g id="edge32" class="edge"><title>25&#45;&gt;21</title>
<path fill="none" stroke="grey" stroke-width="2" d="M196.006,-647.697C195.785,-639.983 195.52,-630.712 195.275,-622.112"/>
<polygon fill="grey" stroke="grey" stroke-width="2" points="198.773,-622 194.989,-612.104 191.776,-622.2 198.773,-622"/>
</g>
<!-- 26 -->
<g id="node27" class="node"><title>26</title>
<path fill="none" stroke="#c6d856" stroke-width="2" stroke-dasharray="5,2" d="M107,-684C107,-684 12,-684 12,-684 6,-684 0,-678 0,-672 0,-672 0,-660 0,-660 0,-654 6,-648 12,-648 12,-648 107,-648 107,-648 113,-648 119,-654 119,-660 119,-660 119,-672 119,-672 119,-678 113,-684 107,-684"/>
<text text-anchor="middle" x="59.5" y="-669" font-family="sans" font-size="10.00">sra2fastq</text>
<text text-anchor="middle" x="59.5" y="-658" font-family="sans" font-size="10.00">sample: SRR3418006</text>
</g>
<!-- 26&#45;&gt;22 -->
<g id="edge33" class="edge"><title>26&#45;&gt;22</title>
<path fill="none" stroke="grey" stroke-width="2" d="M61.2303,-647.697C62.0017,-639.983 62.9288,-630.712 63.7888,-622.112"/>
<polygon fill="grey" stroke="grey" stroke-width="2" points="67.2771,-622.403 64.7896,-612.104 60.3118,-621.706 67.2771,-622.403"/>
</g>
<!-- 27 -->
<g id="node28" class="node"><title>27</title>
<path fill="none" stroke="#c6d856" stroke-width="2" stroke-dasharray="5,2" d="M519,-684C519,-684 424,-684 424,-684 418,-684 412,-678 412,-672 412,-672 412,-660 412,-660 412,-654 418,-648 424,-648 424,-648 519,-648 519,-648 525,-648 531,-654 531,-660 531,-660 531,-672 531,-672 531,-678 525,-684 519,-684"/>
<text text-anchor="middle" x="471.5" y="-669" font-family="sans" font-size="10.00">sra2fastq</text>
<text text-anchor="middle" x="471.5" y="-658" font-family="sans" font-size="10.00">sample: SRR3418019</text>
</g>
<!-- 27&#45;&gt;23 -->
<g id="edge34" class="edge"><title>27&#45;&gt;23</title>
<path fill="none" stroke="grey" stroke-width="2" d="M466.803,-647.697C464.687,-639.898 462.138,-630.509 459.782,-621.829"/>
<polygon fill="grey" stroke="grey" stroke-width="2" points="463.14,-620.838 457.143,-612.104 456.384,-622.672 463.14,-620.838"/>
</g>
<!-- 28 -->
<g id="node29" class="node"><title>28</title>
<path fill="none" stroke="#c6d856" stroke-width="2" stroke-dasharray="5,2" d="M382,-684C382,-684 287,-684 287,-684 281,-684 275,-678 275,-672 275,-672 275,-660 275,-660 275,-654 281,-648 287,-648 287,-648 382,-648 382,-648 388,-648 394,-654 394,-660 394,-660 394,-672 394,-672 394,-678 388,-684 382,-684"/>
<text text-anchor="middle" x="334.5" y="-669" font-family="sans" font-size="10.00">sra2fastq</text>
<text text-anchor="middle" x="334.5" y="-658" font-family="sans" font-size="10.00">sample: SRR3418020</text>
</g>
<!-- 28&#45;&gt;24 -->
<g id="edge35" class="edge"><title>28&#45;&gt;24</title>
<path fill="none" stroke="grey" stroke-width="2" d="M336.725,-647.697C337.717,-639.983 338.908,-630.712 340.014,-622.112"/>
<polygon fill="grey" stroke="grey" stroke-width="2" points="343.497,-622.469 341.301,-612.104 336.554,-621.576 343.497,-622.469"/>
</g>
</g>
</svg>
