<?xml version="1.0" encoding="UTF-8" standalone="no"?>
<!DOCTYPE svg PUBLIC "-//W3C//DTD SVG 1.1//EN"
 "http://www.w3.org/Graphics/SVG/1.1/DTD/svg11.dtd">
<!-- Generated by graphviz version 2.40.1 (20161225.0304)
 -->
<!-- Title: snakemake_dag Pages: 1 -->
<svg width="754pt" height="332pt"
 viewBox="0.00 0.00 754.10 332.00" xmlns="http://www.w3.org/2000/svg" xmlns:xlink="http://www.w3.org/1999/xlink">
<g id="graph0" class="graph" transform="scale(1 1) rotate(0) translate(4 328)">
<title>snakemake_dag</title>
<polygon fill="#ffffff" stroke="transparent" points="-4,4 -4,-328 750.0997,-328 750.0997,4 -4,4"/>
<!-- 0 -->
<g id="node1" class="node">
<title>0</title>
<path fill="none" stroke="#ced856" stroke-width="2" d="M281.0409,-36C281.0409,-36 251.0409,-36 251.0409,-36 245.0409,-36 239.0409,-30 239.0409,-24 239.0409,-24 239.0409,-12 239.0409,-12 239.0409,-6 245.0409,0 251.0409,0 251.0409,0 281.0409,0 281.0409,0 287.0409,0 293.0409,-6 293.0409,-12 293.0409,-12 293.0409,-24 293.0409,-24 293.0409,-30 287.0409,-36 281.0409,-36"/>
<text text-anchor="middle" x="266.0409" y="-15.5" font-family="sans" font-size="10.00" fill="#000000">all</text>
</g>
<!-- 1 -->
<g id="node2" class="node">
<title>1</title>
<path fill="none" stroke="#70d856" stroke-width="2" d="M97.5409,-180C97.5409,-180 50.5409,-180 50.5409,-180 44.5409,-180 38.5409,-174 38.5409,-168 38.5409,-168 38.5409,-156 38.5409,-156 38.5409,-150 44.5409,-144 50.5409,-144 50.5409,-144 97.5409,-144 97.5409,-144 103.5409,-144 109.5409,-150 109.5409,-156 109.5409,-156 109.5409,-168 109.5409,-168 109.5409,-174 103.5409,-180 97.5409,-180"/>
<text text-anchor="middle" x="74.0409" y="-159.5" font-family="sans" font-size="10.00" fill="#000000">multiqc_pe</text>
</g>
<!-- 1&#45;&gt;0 -->
<g id="edge1" class="edge">
<title>1&#45;&gt;0</title>
<path fill="none" stroke="#c0c0c0" stroke-width="2" d="M79.9173,-143.6512C87.2442,-123.4974 101.6079,-91.4205 124.0409,-72 154.0495,-46.0211 197.8471,-31.925 228.8522,-24.7185"/>
<polygon fill="#c0c0c0" stroke="#c0c0c0" stroke-width="2" points="229.8185,-28.09 238.8382,-22.5315 228.3209,-21.252 229.8185,-28.09"/>
</g>
<!-- 2 -->
<g id="node3" class="node">
<title>2</title>
<path fill="none" stroke="#56d86b" stroke-width="2" d="M163.5409,-324C163.5409,-324 118.5409,-324 118.5409,-324 112.5409,-324 106.5409,-318 106.5409,-312 106.5409,-312 106.5409,-300 106.5409,-300 106.5409,-294 112.5409,-288 118.5409,-288 118.5409,-288 163.5409,-288 163.5409,-288 169.5409,-288 175.5409,-294 175.5409,-300 175.5409,-300 175.5409,-312 175.5409,-312 175.5409,-318 169.5409,-324 163.5409,-324"/>
<text text-anchor="middle" x="141.0409" y="-303.5" font-family="sans" font-size="10.00" fill="#000000">bwa_index</text>
</g>
<!-- 2&#45;&gt;0 -->
<g id="edge2" class="edge">
<title>2&#45;&gt;0</title>
<path fill="none" stroke="#c0c0c0" stroke-width="2" d="M106.421,-302.9182C74.1071,-297.9953 27.586,-285.209 5.0409,-252 -13.5061,-224.6802 27.0001,-147.5299 29.0409,-144 50.4703,-106.9343 57.073,-95.2249 93.0409,-72 135.1416,-44.815 191.8232,-30.5542 228.6445,-23.6587"/>
<polygon fill="#c0c0c0" stroke="#c0c0c0" stroke-width="2" points="229.7033,-27.0253 238.935,-21.8266 228.4763,-20.1336 229.7033,-27.0253"/>
</g>
<!-- 4 -->
<g id="node5" class="node">
<title>4</title>
<path fill="none" stroke="#566bd8" stroke-width="2" d="M316.0409,-252C316.0409,-252 274.0409,-252 274.0409,-252 268.0409,-252 262.0409,-246 262.0409,-240 262.0409,-240 262.0409,-228 262.0409,-228 262.0409,-222 268.0409,-216 274.0409,-216 274.0409,-216 316.0409,-216 316.0409,-216 322.0409,-216 328.0409,-222 328.0409,-228 328.0409,-228 328.0409,-240 328.0409,-240 328.0409,-246 322.0409,-252 316.0409,-252"/>
<text text-anchor="middle" x="295.0409" y="-231.5" font-family="sans" font-size="10.00" fill="#000000">bwa_align</text>
</g>
<!-- 2&#45;&gt;4 -->
<g id="edge13" class="edge">
<title>2&#45;&gt;4</title>
<path fill="none" stroke="#c0c0c0" stroke-width="2" d="M175.6015,-289.8418C198.3833,-279.1905 228.3732,-265.1693 252.6022,-253.8415"/>
<polygon fill="#c0c0c0" stroke="#c0c0c0" stroke-width="2" points="254.3396,-256.8929 261.9161,-249.4869 251.3749,-250.5517 254.3396,-256.8929"/>
</g>
<!-- 3 -->
<g id="node4" class="node">
<title>3</title>
<path fill="none" stroke="#88d856" stroke-width="2" d="M656.0409,-324C656.0409,-324 612.0409,-324 612.0409,-324 606.0409,-324 600.0409,-318 600.0409,-312 600.0409,-312 600.0409,-300 600.0409,-300 600.0409,-294 606.0409,-288 612.0409,-288 612.0409,-288 656.0409,-288 656.0409,-288 662.0409,-288 668.0409,-294 668.0409,-300 668.0409,-300 668.0409,-312 668.0409,-312 668.0409,-318 662.0409,-324 656.0409,-324"/>
<text text-anchor="middle" x="634.0409" y="-303.5" font-family="sans" font-size="10.00" fill="#000000">star_index</text>
</g>
<!-- 3&#45;&gt;0 -->
<g id="edge3" class="edge">
<title>3&#45;&gt;0</title>
<path fill="none" stroke="#c0c0c0" stroke-width="2" d="M668.2846,-298.7645C693.2217,-291.5104 725.2812,-277.6064 741.0409,-252 751.7992,-234.5199 742.2563,-158.3034 733.0409,-144 699.1482,-91.3945 670.915,-93.2105 612.0409,-72 504.4904,-33.253 368.2677,-22.2929 303.5149,-19.2043"/>
<polygon fill="#c0c0c0" stroke="#c0c0c0" stroke-width="2" points="303.5266,-15.7015 293.3823,-18.7583 303.2186,-22.6948 303.5266,-15.7015"/>
</g>
<!-- 13 -->
<g id="node14" class="node">
<title>13</title>
<path fill="none" stroke="#56d882" stroke-width="2" d="M493.5409,-252C493.5409,-252 452.5409,-252 452.5409,-252 446.5409,-252 440.5409,-246 440.5409,-240 440.5409,-240 440.5409,-228 440.5409,-228 440.5409,-222 446.5409,-216 452.5409,-216 452.5409,-216 493.5409,-216 493.5409,-216 499.5409,-216 505.5409,-222 505.5409,-228 505.5409,-228 505.5409,-240 505.5409,-240 505.5409,-246 499.5409,-252 493.5409,-252"/>
<text text-anchor="middle" x="473.0409" y="-231.5" font-family="sans" font-size="10.00" fill="#000000">star_align</text>
</g>
<!-- 3&#45;&gt;13 -->
<g id="edge23" class="edge">
<title>3&#45;&gt;13</title>
<path fill="none" stroke="#c0c0c0" stroke-width="2" d="M599.8969,-290.7307C575.152,-279.6646 541.5423,-264.6342 515.1346,-252.8245"/>
<polygon fill="#c0c0c0" stroke="#c0c0c0" stroke-width="2" points="516.3187,-249.52 505.7611,-248.6326 513.461,-255.9102 516.3187,-249.52"/>
</g>
<!-- 16 -->
<g id="node17" class="node">
<title>16</title>
<path fill="none" stroke="#5682d8" stroke-width="2" d="M719.5409,-252C719.5409,-252 648.5409,-252 648.5409,-252 642.5409,-252 636.5409,-246 636.5409,-240 636.5409,-240 636.5409,-228 636.5409,-228 636.5409,-222 642.5409,-216 648.5409,-216 648.5409,-216 719.5409,-216 719.5409,-216 725.5409,-216 731.5409,-222 731.5409,-228 731.5409,-228 731.5409,-240 731.5409,-240 731.5409,-246 725.5409,-252 719.5409,-252"/>
<text text-anchor="middle" x="684.0409" y="-237" font-family="sans" font-size="10.00" fill="#000000">star_align_mate</text>
<text text-anchor="middle" x="684.0409" y="-226" font-family="sans" font-size="10.00" fill="#000000">mate: R1</text>
</g>
<!-- 3&#45;&gt;16 -->
<g id="edge28" class="edge">
<title>3&#45;&gt;16</title>
<path fill="none" stroke="#c0c0c0" stroke-width="2" d="M646.658,-287.8314C652.3581,-279.6232 659.2072,-269.7606 665.4768,-260.7323"/>
<polygon fill="#c0c0c0" stroke="#c0c0c0" stroke-width="2" points="668.4247,-262.6234 671.2539,-252.4133 662.6751,-258.6306 668.4247,-262.6234"/>
</g>
<!-- 17 -->
<g id="node18" class="node">
<title>17</title>
<path fill="none" stroke="#5682d8" stroke-width="2" d="M606.5409,-252C606.5409,-252 535.5409,-252 535.5409,-252 529.5409,-252 523.5409,-246 523.5409,-240 523.5409,-240 523.5409,-228 523.5409,-228 523.5409,-222 529.5409,-216 535.5409,-216 535.5409,-216 606.5409,-216 606.5409,-216 612.5409,-216 618.5409,-222 618.5409,-228 618.5409,-228 618.5409,-240 618.5409,-240 618.5409,-246 612.5409,-252 606.5409,-252"/>
<text text-anchor="middle" x="571.0409" y="-237" font-family="sans" font-size="10.00" fill="#000000">star_align_mate</text>
<text text-anchor="middle" x="571.0409" y="-226" font-family="sans" font-size="10.00" fill="#000000">mate: R2</text>
</g>
<!-- 3&#45;&gt;17 -->
<g id="edge30" class="edge">
<title>3&#45;&gt;17</title>
<path fill="none" stroke="#c0c0c0" stroke-width="2" d="M618.1433,-287.8314C610.8131,-279.454 601.9749,-269.3531 593.944,-260.1749"/>
<polygon fill="#c0c0c0" stroke="#c0c0c0" stroke-width="2" points="596.3716,-257.6343 587.1525,-252.4133 591.1036,-262.2438 596.3716,-257.6343"/>
</g>
<!-- 4&#45;&gt;0 -->
<g id="edge4" class="edge">
<title>4&#45;&gt;0</title>
<path fill="none" stroke="#c0c0c0" stroke-width="2" d="M261.6283,-219.5158C258.7308,-218.3097 255.8384,-217.1233 253.0409,-216 210.7545,-199.0204 182.9962,-217.4535 157.0409,-180 134.9956,-148.1886 187.6978,-72.4191 188.0409,-72 199.5306,-57.9622 215.5718,-46.0079 230.1213,-36.9429"/>
<polygon fill="#c0c0c0" stroke="#c0c0c0" stroke-width="2" points="232.1433,-39.812 238.9336,-31.6791 228.5537,-33.8024 232.1433,-39.812"/>
</g>
<!-- 5 -->
<g id="node6" class="node">
<title>5</title>
<path fill="none" stroke="#b6d856" stroke-width="2" d="M286.0409,-180C286.0409,-180 178.0409,-180 178.0409,-180 172.0409,-180 166.0409,-174 166.0409,-168 166.0409,-168 166.0409,-156 166.0409,-156 166.0409,-150 172.0409,-144 178.0409,-144 178.0409,-144 286.0409,-144 286.0409,-144 292.0409,-144 298.0409,-150 298.0409,-156 298.0409,-156 298.0409,-168 298.0409,-168 298.0409,-174 292.0409,-180 286.0409,-180"/>
<text text-anchor="middle" x="232.0409" y="-159.5" font-family="sans" font-size="10.00" fill="#000000">circexplorer_parse_bwa</text>
</g>
<!-- 4&#45;&gt;5 -->
<g id="edge14" class="edge">
<title>4&#45;&gt;5</title>
<path fill="none" stroke="#c0c0c0" stroke-width="2" d="M279.1433,-215.8314C271.8131,-207.454 262.9749,-197.3531 254.944,-188.1749"/>
<polygon fill="#c0c0c0" stroke="#c0c0c0" stroke-width="2" points="257.3716,-185.6343 248.1525,-180.4133 252.1036,-190.2438 257.3716,-185.6343"/>
</g>
<!-- 5&#45;&gt;0 -->
<g id="edge5" class="edge">
<title>5&#45;&gt;0</title>
<path fill="none" stroke="#c0c0c0" stroke-width="2" d="M215.2685,-143.74C200.4888,-125.3191 183.034,-96.2171 195.0409,-72 202.5461,-56.8625 216.5498,-44.8196 230.1498,-35.983"/>
<polygon fill="#c0c0c0" stroke="#c0c0c0" stroke-width="2" points="232.223,-38.819 238.9562,-30.6389 228.5914,-32.8347 232.223,-38.819"/>
</g>
<!-- 7 -->
<g id="node8" class="node">
<title>7</title>
<path fill="none" stroke="#56d89a" stroke-width="2" d="M315.5409,-108C315.5409,-108 216.5409,-108 216.5409,-108 210.5409,-108 204.5409,-102 204.5409,-96 204.5409,-96 204.5409,-84 204.5409,-84 204.5409,-78 210.5409,-72 216.5409,-72 216.5409,-72 315.5409,-72 315.5409,-72 321.5409,-72 327.5409,-78 327.5409,-84 327.5409,-84 327.5409,-96 327.5409,-96 327.5409,-102 321.5409,-108 315.5409,-108"/>
<text text-anchor="middle" x="266.0409" y="-93" font-family="sans" font-size="10.00" fill="#000000">circexplorer_annotate</text>
<text text-anchor="middle" x="266.0409" y="-82" font-family="sans" font-size="10.00" fill="#000000">aligner: bwa</text>
</g>
<!-- 5&#45;&gt;7 -->
<g id="edge16" class="edge">
<title>5&#45;&gt;7</title>
<path fill="none" stroke="#c0c0c0" stroke-width="2" d="M240.6205,-143.8314C244.3767,-135.8771 248.8666,-126.369 253.0206,-117.5723"/>
<polygon fill="#c0c0c0" stroke="#c0c0c0" stroke-width="2" points="256.2405,-118.9503 257.3457,-108.4133 249.9108,-115.9612 256.2405,-118.9503"/>
</g>
<!-- 6 -->
<g id="node7" class="node">
<title>6</title>
<path fill="none" stroke="#56d8c9" stroke-width="2" d="M535.5409,-180C535.5409,-180 428.5409,-180 428.5409,-180 422.5409,-180 416.5409,-174 416.5409,-168 416.5409,-168 416.5409,-156 416.5409,-156 416.5409,-150 422.5409,-144 428.5409,-144 428.5409,-144 535.5409,-144 535.5409,-144 541.5409,-144 547.5409,-150 547.5409,-156 547.5409,-156 547.5409,-168 547.5409,-168 547.5409,-174 541.5409,-180 535.5409,-180"/>
<text text-anchor="middle" x="482.0409" y="-159.5" font-family="sans" font-size="10.00" fill="#000000">circexplorer_parse_star</text>
</g>
<!-- 6&#45;&gt;0 -->
<g id="edge6" class="edge">
<title>6&#45;&gt;0</title>
<path fill="none" stroke="#c0c0c0" stroke-width="2" d="M486.9803,-143.9183C491.2427,-124.0039 494.4248,-92.1408 478.0409,-72 456.2,-45.1509 358.0067,-29.1616 303.2459,-22.1775"/>
<polygon fill="#c0c0c0" stroke="#c0c0c0" stroke-width="2" points="303.5853,-18.6929 293.2313,-20.9389 302.726,-25.64 303.5853,-18.6929"/>
</g>
<!-- 8 -->
<g id="node9" class="node">
<title>8</title>
<path fill="none" stroke="#56d89a" stroke-width="2" d="M456.5409,-108C456.5409,-108 357.5409,-108 357.5409,-108 351.5409,-108 345.5409,-102 345.5409,-96 345.5409,-96 345.5409,-84 345.5409,-84 345.5409,-78 351.5409,-72 357.5409,-72 357.5409,-72 456.5409,-72 456.5409,-72 462.5409,-72 468.5409,-78 468.5409,-84 468.5409,-84 468.5409,-96 468.5409,-96 468.5409,-102 462.5409,-108 456.5409,-108"/>
<text text-anchor="middle" x="407.0409" y="-93" font-family="sans" font-size="10.00" fill="#000000">circexplorer_annotate</text>
<text text-anchor="middle" x="407.0409" y="-82" font-family="sans" font-size="10.00" fill="#000000">aligner: star</text>
</g>
<!-- 6&#45;&gt;8 -->
<g id="edge18" class="edge">
<title>6&#45;&gt;8</title>
<path fill="none" stroke="#c0c0c0" stroke-width="2" d="M463.1152,-143.8314C454.0552,-135.1337 443.06,-124.5783 433.2144,-115.1265"/>
<polygon fill="#c0c0c0" stroke="#c0c0c0" stroke-width="2" points="435.5983,-112.5633 425.9605,-108.1628 430.7505,-117.613 435.5983,-112.5633"/>
</g>
<!-- 7&#45;&gt;0 -->
<g id="edge7" class="edge">
<title>7&#45;&gt;0</title>
<path fill="none" stroke="#c0c0c0" stroke-width="2" d="M266.0409,-71.8314C266.0409,-64.131 266.0409,-54.9743 266.0409,-46.4166"/>
<polygon fill="#c0c0c0" stroke="#c0c0c0" stroke-width="2" points="269.541,-46.4132 266.0409,-36.4133 262.541,-46.4133 269.541,-46.4132"/>
</g>
<!-- 8&#45;&gt;0 -->
<g id="edge8" class="edge">
<title>8&#45;&gt;0</title>
<path fill="none" stroke="#c0c0c0" stroke-width="2" d="M371.4606,-71.8314C350.2831,-61.0173 323.4813,-47.3312 302.202,-36.4652"/>
<polygon fill="#c0c0c0" stroke="#c0c0c0" stroke-width="2" points="303.6519,-33.2757 293.1541,-31.845 300.4684,-39.51 303.6519,-33.2757"/>
</g>
<!-- 9 -->
<g id="node10" class="node">
<title>9</title>
<path fill="none" stroke="#d86e56" stroke-width="2" d="M591.0409,-108C591.0409,-108 561.0409,-108 561.0409,-108 555.0409,-108 549.0409,-102 549.0409,-96 549.0409,-96 549.0409,-84 549.0409,-84 549.0409,-78 555.0409,-72 561.0409,-72 561.0409,-72 591.0409,-72 591.0409,-72 597.0409,-72 603.0409,-78 603.0409,-84 603.0409,-84 603.0409,-96 603.0409,-96 603.0409,-102 597.0409,-108 591.0409,-108"/>
<text text-anchor="middle" x="576.0409" y="-87.5" font-family="sans" font-size="10.00" fill="#000000">dcc</text>
</g>
<!-- 9&#45;&gt;0 -->
<g id="edge9" class="edge">
<title>9&#45;&gt;0</title>
<path fill="none" stroke="#c0c0c0" stroke-width="2" d="M548.928,-82.1449C537.3,-78.8662 523.5411,-75.106 511.0409,-72 437.7928,-53.7994 351.4515,-35.4965 303.3037,-25.5691"/>
<polygon fill="#c0c0c0" stroke="#c0c0c0" stroke-width="2" points="303.8421,-22.1066 293.3423,-23.5224 302.4332,-28.9634 303.8421,-22.1066"/>
</g>
<!-- 10 -->
<g id="node11" class="node">
<title>10</title>
<path fill="none" stroke="#59d856" stroke-width="2" d="M122.0409,-252C122.0409,-252 26.0409,-252 26.0409,-252 20.0409,-252 14.0409,-246 14.0409,-240 14.0409,-240 14.0409,-228 14.0409,-228 14.0409,-222 20.0409,-216 26.0409,-216 26.0409,-216 122.0409,-216 122.0409,-216 128.0409,-216 134.0409,-222 134.0409,-228 134.0409,-228 134.0409,-240 134.0409,-240 134.0409,-246 128.0409,-252 122.0409,-252"/>
<text text-anchor="middle" x="74.0409" y="-237" font-family="sans" font-size="10.00" fill="#000000">before_fastqc_pe</text>
<text text-anchor="middle" x="74.0409" y="-226" font-family="sans" font-size="10.00" fill="#000000">sample: SRR6999021</text>
</g>
<!-- 10&#45;&gt;1 -->
<g id="edge10" class="edge">
<title>10&#45;&gt;1</title>
<path fill="none" stroke="#c0c0c0" stroke-width="2" d="M74.0409,-215.8314C74.0409,-208.131 74.0409,-198.9743 74.0409,-190.4166"/>
<polygon fill="#c0c0c0" stroke="#c0c0c0" stroke-width="2" points="77.541,-190.4132 74.0409,-180.4133 70.541,-190.4133 77.541,-190.4132"/>
</g>
<!-- 11 -->
<g id="node12" class="node">
<title>11</title>
<path fill="none" stroke="#9fd856" stroke-width="2" d="M232.0409,-252C232.0409,-252 164.0409,-252 164.0409,-252 158.0409,-252 152.0409,-246 152.0409,-240 152.0409,-240 152.0409,-228 152.0409,-228 152.0409,-222 158.0409,-216 164.0409,-216 164.0409,-216 232.0409,-216 232.0409,-216 238.0409,-216 244.0409,-222 244.0409,-228 244.0409,-228 244.0409,-240 244.0409,-240 244.0409,-246 238.0409,-252 232.0409,-252"/>
<text text-anchor="middle" x="198.0409" y="-231.5" font-family="sans" font-size="10.00" fill="#000000">after_fastqc_pe</text>
</g>
<!-- 11&#45;&gt;1 -->
<g id="edge11" class="edge">
<title>11&#45;&gt;1</title>
<path fill="none" stroke="#c0c0c0" stroke-width="2" d="M166.7505,-215.8314C150.7432,-206.5368 131.0823,-195.1208 113.9915,-185.1971"/>
<polygon fill="#c0c0c0" stroke="#c0c0c0" stroke-width="2" points="115.7267,-182.1575 105.3213,-180.1628 112.2117,-188.211 115.7267,-182.1575"/>
</g>
<!-- 12 -->
<g id="node13" class="node">
<title>12</title>
<path fill="none" stroke="#d8b456" stroke-width="2" d="M521.0409,-324C521.0409,-324 425.0409,-324 425.0409,-324 419.0409,-324 413.0409,-318 413.0409,-312 413.0409,-312 413.0409,-300 413.0409,-300 413.0409,-294 419.0409,-288 425.0409,-288 425.0409,-288 521.0409,-288 521.0409,-288 527.0409,-288 533.0409,-294 533.0409,-300 533.0409,-300 533.0409,-312 533.0409,-312 533.0409,-318 527.0409,-324 521.0409,-324"/>
<text text-anchor="middle" x="473.0409" y="-309" font-family="sans" font-size="10.00" fill="#000000">trim_fastp_pe</text>
<text text-anchor="middle" x="473.0409" y="-298" font-family="sans" font-size="10.00" fill="#000000">sample: SRR6999021</text>
</g>
<!-- 12&#45;&gt;4 -->
<g id="edge12" class="edge">
<title>12&#45;&gt;4</title>
<path fill="none" stroke="#c0c0c0" stroke-width="2" d="M428.124,-287.8314C400.3013,-276.5772 364.789,-262.2127 337.4475,-251.1532"/>
<polygon fill="#c0c0c0" stroke="#c0c0c0" stroke-width="2" points="338.726,-247.8949 328.1432,-247.3897 336.1011,-254.3842 338.726,-247.8949"/>
</g>
<!-- 12&#45;&gt;11 -->
<g id="edge22" class="edge">
<title>12&#45;&gt;11</title>
<path fill="none" stroke="#c0c0c0" stroke-width="2" d="M412.9591,-292.5453C370.8934,-282.8287 313.2065,-268.9146 254.0647,-252.1969"/>
<polygon fill="#c0c0c0" stroke="#c0c0c0" stroke-width="2" points="254.7527,-248.7537 244.1763,-249.3791 252.8343,-255.4857 254.7527,-248.7537"/>
</g>
<!-- 12&#45;&gt;13 -->
<g id="edge24" class="edge">
<title>12&#45;&gt;13</title>
<path fill="none" stroke="#c0c0c0" stroke-width="2" d="M473.0409,-287.8314C473.0409,-280.131 473.0409,-270.9743 473.0409,-262.4166"/>
<polygon fill="#c0c0c0" stroke="#c0c0c0" stroke-width="2" points="476.541,-262.4132 473.0409,-252.4133 469.541,-262.4133 476.541,-262.4132"/>
</g>
<!-- 12&#45;&gt;16 -->
<g id="edge29" class="edge">
<title>12&#45;&gt;16</title>
<path fill="none" stroke="#c0c0c0" stroke-width="2" d="M526.0128,-287.9243C556.768,-277.4296 595.5191,-264.2065 626.9505,-253.4811"/>
<polygon fill="#c0c0c0" stroke="#c0c0c0" stroke-width="2" points="628.1192,-256.7805 636.4531,-250.2385 625.8585,-250.1556 628.1192,-256.7805"/>
</g>
<!-- 12&#45;&gt;17 -->
<g id="edge31" class="edge">
<title>12&#45;&gt;17</title>
<path fill="none" stroke="#c0c0c0" stroke-width="2" d="M497.7704,-287.8314C509.957,-278.8779 524.8232,-267.9558 537.9721,-258.2955"/>
<polygon fill="#c0c0c0" stroke="#c0c0c0" stroke-width="2" points="540.3327,-260.9042 546.3193,-252.1628 536.1882,-255.263 540.3327,-260.9042"/>
</g>
<!-- 13&#45;&gt;6 -->
<g id="edge15" class="edge">
<title>13&#45;&gt;6</title>
<path fill="none" stroke="#c0c0c0" stroke-width="2" d="M475.312,-215.8314C476.2745,-208.131 477.4191,-198.9743 478.4888,-190.4166"/>
<polygon fill="#c0c0c0" stroke="#c0c0c0" stroke-width="2" points="481.9718,-190.7702 479.7392,-180.4133 475.0258,-189.9019 481.9718,-190.7702"/>
</g>
<!-- 13&#45;&gt;9 -->
<g id="edge21" class="edge">
<title>13&#45;&gt;9</title>
<path fill="none" stroke="#c0c0c0" stroke-width="2" d="M505.5918,-220.7009C523.4421,-211.7679 544.4421,-198.2679 557.0409,-180 569.5285,-161.8933 574.0788,-137.2179 575.6179,-118.2835"/>
<polygon fill="#c0c0c0" stroke="#c0c0c0" stroke-width="2" points="579.1199,-118.3485 576.204,-108.1629 572.1316,-117.9437 579.1199,-118.3485"/>
</g>
<!-- 15 -->
<g id="node16" class="node">
<title>15</title>
<path fill="none" stroke="#d8cb56" stroke-width="2" d="M711.5409,-180C711.5409,-180 616.5409,-180 616.5409,-180 610.5409,-180 604.5409,-174 604.5409,-168 604.5409,-168 604.5409,-156 604.5409,-156 604.5409,-150 610.5409,-144 616.5409,-144 616.5409,-144 711.5409,-144 711.5409,-144 717.5409,-144 723.5409,-150 723.5409,-156 723.5409,-156 723.5409,-168 723.5409,-168 723.5409,-174 717.5409,-180 711.5409,-180"/>
<text text-anchor="middle" x="664.0409" y="-159.5" font-family="sans" font-size="10.00" fill="#000000">dcc_pe_samplesheet</text>
</g>
<!-- 13&#45;&gt;15 -->
<g id="edge25" class="edge">
<title>13&#45;&gt;15</title>
<path fill="none" stroke="#c0c0c0" stroke-width="2" d="M505.9821,-219.6715C509.0353,-218.4072 512.0897,-217.1661 515.0409,-216 543.5291,-204.7437 575.418,-193.0653 602.3623,-183.4607"/>
<polygon fill="#c0c0c0" stroke="#c0c0c0" stroke-width="2" points="603.7977,-186.6652 612.05,-180.0206 601.4553,-180.0687 603.7977,-186.6652"/>
</g>
<!-- 14 -->
<g id="node15" class="node">
<title>14</title>
<path fill="none" stroke="#56c9d8" stroke-width="2" d="M386.0409,-180C386.0409,-180 328.0409,-180 328.0409,-180 322.0409,-180 316.0409,-174 316.0409,-168 316.0409,-168 316.0409,-156 316.0409,-156 316.0409,-150 322.0409,-144 328.0409,-144 328.0409,-144 386.0409,-144 386.0409,-144 392.0409,-144 398.0409,-150 398.0409,-156 398.0409,-156 398.0409,-168 398.0409,-168 398.0409,-174 392.0409,-180 386.0409,-180"/>
<text text-anchor="middle" x="357.0409" y="-159.5" font-family="sans" font-size="10.00" fill="#000000">gtf2genepred</text>
</g>
<!-- 14&#45;&gt;7 -->
<g id="edge17" class="edge">
<title>14&#45;&gt;7</title>
<path fill="none" stroke="#c0c0c0" stroke-width="2" d="M334.0778,-143.8314C322.8694,-134.9632 309.22,-124.1637 297.097,-114.5718"/>
<polygon fill="#c0c0c0" stroke="#c0c0c0" stroke-width="2" points="299.0106,-111.6229 288.9967,-108.1628 294.6672,-117.1125 299.0106,-111.6229"/>
</g>
<!-- 14&#45;&gt;8 -->
<g id="edge19" class="edge">
<title>14&#45;&gt;8</title>
<path fill="none" stroke="#c0c0c0" stroke-width="2" d="M369.658,-143.8314C375.3581,-135.6232 382.2072,-125.7606 388.4768,-116.7323"/>
<polygon fill="#c0c0c0" stroke="#c0c0c0" stroke-width="2" points="391.4247,-118.6234 394.2539,-108.4133 385.6751,-114.6306 391.4247,-118.6234"/>
</g>
<!-- 15&#45;&gt;9 -->
<g id="edge20" class="edge">
<title>15&#45;&gt;9</title>
<path fill="none" stroke="#c0c0c0" stroke-width="2" d="M641.8348,-143.8314C630.9959,-134.9632 617.7965,-124.1637 606.0731,-114.5718"/>
<polygon fill="#c0c0c0" stroke="#c0c0c0" stroke-width="2" points="608.1958,-111.7864 598.2399,-108.1628 603.7632,-117.2041 608.1958,-111.7864"/>
</g>
<!-- 16&#45;&gt;15 -->
<g id="edge26" class="edge">
<title>16&#45;&gt;15</title>
<path fill="none" stroke="#c0c0c0" stroke-width="2" d="M678.9941,-215.8314C676.8315,-208.0463 674.2556,-198.7729 671.8561,-190.1347"/>
<polygon fill="#c0c0c0" stroke="#c0c0c0" stroke-width="2" points="675.2045,-189.1117 669.1557,-180.4133 668.4599,-190.9852 675.2045,-189.1117"/>
</g>
<!-- 17&#45;&gt;15 -->
<g id="edge27" class="edge">
<title>17&#45;&gt;15</title>
<path fill="none" stroke="#c0c0c0" stroke-width="2" d="M594.5087,-215.8314C606.0736,-206.8779 620.1813,-195.9558 632.6592,-186.2955"/>
<polygon fill="#c0c0c0" stroke="#c0c0c0" stroke-width="2" points="634.8159,-189.0521 640.5806,-180.1628 630.5307,-183.5171 634.8159,-189.0521"/>
</g>
</g>
</svg>
